<svg width="1640" height="407" viewBox="0 0 1640 407" fill="none" xmlns="http://www.w3.org/2000/svg">
<path d="M1.5 100.5L177 0L351.5 100V122L320 140V120L175 38L51 110L241.5 222L351.5 157.5V263.5L320 246V215L275.5 241.5L351.5 285.5V306L177 407L15.5 314.5L66 285L99.5 304.5L80.5 313.5L177 368.5L302 296L1.5 124V100.5Z" fill="#D10101"/>
<path d="M33 267.5L0.5 286V158L178 259.5L193.5 250L225.5 269L176.5 298.5L33 216V267.5Z" fill="#D10101"/>
<path d="M494.469 135.399L493.848 156.031H483.607V144H480.027V135.399H494.469ZM445.425 144V93.0909H455.766V135.349H476.945V93.0909H487.41V144H445.425ZM501.001 144V93.0909H535.305V101.965H511.764V114.096H533.54V122.97H511.764V135.126H535.404V144H501.001ZM543.862 144V93.0909H554.626V114.096H576.476V93.0909H587.214V144H576.476V122.97H554.626V144H543.862ZM594.15 101.965V93.0909H635.961V101.965H620.375V144H609.736V101.965H594.15ZM642.847 144V93.0909H662.932C666.793 93.0909 670.083 93.8284 672.8 95.3033C675.518 96.7616 677.59 98.7917 679.015 101.393C680.457 103.979 681.178 106.962 681.178 110.342C681.178 113.723 680.448 116.706 678.99 119.291C677.532 121.876 675.419 123.89 672.651 125.332C669.9 126.773 666.569 127.494 662.658 127.494H649.857V118.869H660.918C662.99 118.869 664.697 118.512 666.039 117.8C667.398 117.071 668.409 116.068 669.072 114.792C669.751 113.499 670.091 112.016 670.091 110.342C670.091 108.652 669.751 107.177 669.072 105.918C668.409 104.642 667.398 103.656 666.039 102.96C664.68 102.247 662.957 101.891 660.869 101.891H653.61V144H642.847ZM749.288 110.914H738.401C738.202 109.505 737.796 108.254 737.183 107.161C736.569 106.05 735.782 105.106 734.821 104.327C733.86 103.548 732.75 102.951 731.49 102.537C730.247 102.123 728.897 101.915 727.438 101.915C724.803 101.915 722.508 102.57 720.553 103.879C718.597 105.172 717.081 107.061 716.004 109.547C714.926 112.016 714.388 115.016 714.388 118.545C714.388 122.175 714.926 125.224 716.004 127.693C717.097 130.162 718.622 132.027 720.577 133.286C722.533 134.546 724.795 135.175 727.364 135.175C728.805 135.175 730.139 134.985 731.366 134.604C732.609 134.223 733.711 133.667 734.672 132.938C735.633 132.192 736.429 131.289 737.058 130.229C737.705 129.168 738.152 127.958 738.401 126.599L749.288 126.649C749.007 128.986 748.302 131.24 747.175 133.411C746.065 135.565 744.565 137.496 742.676 139.202C740.804 140.893 738.566 142.235 735.964 143.229C733.379 144.207 730.454 144.696 727.19 144.696C722.649 144.696 718.589 143.669 715.009 141.614C711.446 139.559 708.629 136.584 706.558 132.69C704.503 128.795 703.475 124.08 703.475 118.545C703.475 112.994 704.519 108.271 706.607 104.376C708.695 100.482 711.529 97.5156 715.109 95.4773C718.688 93.4223 722.715 92.3949 727.19 92.3949C730.139 92.3949 732.874 92.8092 735.393 93.6378C737.928 94.4664 740.174 95.6761 742.129 97.267C744.085 98.8414 745.676 100.772 746.902 103.059C748.145 105.346 748.94 107.964 749.288 110.914ZM755.068 101.965V93.0909H796.879V101.965H781.293V144H770.654V101.965H755.068ZM806.319 144H794.785L812.359 93.0909H826.23L843.78 144H832.246L819.493 104.724H819.096L806.319 144ZM805.598 123.989H832.842V132.391H805.598V123.989ZM849.907 144V93.0909H860.671V114.096H882.521V93.0909H893.259V144H882.521V122.97H860.671V144H849.907ZM899.374 156.28V135.424H902.83C904.006 134.579 905.084 133.386 906.061 131.844C907.039 130.287 907.876 128.141 908.572 125.406C909.268 122.655 909.765 119.059 910.063 114.618L911.505 93.0909H945.188V135.424H950.756V156.23H940.415V144H909.715V156.28H899.374ZM915.259 135.424H934.847V101.965H921.2L920.404 114.618C920.189 117.982 919.833 120.965 919.335 123.567C918.855 126.169 918.267 128.447 917.57 130.403C916.891 132.342 916.12 134.015 915.259 135.424ZM966.075 144H954.54L972.115 93.0909H985.986L1003.54 144H992.001L979.249 104.724H978.852L966.075 144ZM965.354 123.989H992.598V132.391H965.354V123.989ZM1009.66 144V93.0909H1029.75C1033.61 93.0909 1036.9 93.8284 1039.62 95.3033C1042.33 96.7616 1044.41 98.7917 1045.83 101.393C1047.27 103.979 1047.99 106.962 1047.99 110.342C1047.99 113.723 1047.26 116.706 1045.81 119.291C1044.35 121.876 1042.24 123.89 1039.47 125.332C1036.72 126.773 1033.39 127.494 1029.47 127.494H1016.67V118.869H1027.73C1029.81 118.869 1031.51 118.512 1032.86 117.8C1034.21 117.071 1035.23 116.068 1035.89 114.792C1036.57 113.499 1036.91 112.016 1036.91 110.342C1036.91 108.652 1036.57 107.177 1035.89 105.918C1035.23 104.642 1034.21 103.656 1032.86 102.96C1031.5 102.247 1029.77 101.891 1027.69 101.891H1020.43V144H1009.66ZM1053.05 101.965V93.0909H1094.86V101.965H1079.27V144H1068.63V101.965H1053.05ZM1101.74 93.0909H1112.48V125.108H1112.9L1134.9 93.0909H1144.32V144H1133.56V111.958H1133.19L1111.06 144H1101.74V93.0909ZM1171.74 144.696C1168.02 144.696 1164.72 144.058 1161.82 142.782C1158.94 141.489 1156.66 139.716 1154.98 137.462C1153.33 135.192 1152.47 132.574 1152.42 129.607H1163.26C1163.33 130.85 1163.73 131.944 1164.48 132.888C1165.24 133.817 1166.25 134.537 1167.51 135.051C1168.77 135.565 1170.19 135.822 1171.76 135.822C1173.4 135.822 1174.85 135.532 1176.11 134.952C1177.37 134.372 1178.36 133.568 1179.07 132.54C1179.78 131.513 1180.14 130.328 1180.14 128.986C1180.14 127.627 1179.76 126.425 1179 125.381C1178.25 124.321 1177.17 123.492 1175.76 122.896C1174.37 122.299 1172.71 122.001 1170.79 122.001H1166.04V114.096H1170.79C1172.42 114.096 1173.85 113.814 1175.09 113.251C1176.35 112.687 1177.33 111.908 1178.03 110.914C1178.72 109.903 1179.07 108.727 1179.07 107.384C1179.07 106.108 1178.76 104.99 1178.15 104.028C1177.55 103.051 1176.71 102.288 1175.61 101.741C1174.54 101.195 1173.28 100.921 1171.84 100.921C1170.38 100.921 1169.04 101.186 1167.83 101.717C1166.62 102.23 1165.65 102.968 1164.93 103.929C1164.2 104.89 1163.81 106.017 1163.76 107.31H1153.44C1153.49 104.376 1154.33 101.791 1155.95 99.554C1157.58 97.3168 1159.76 95.5684 1162.51 94.3089C1165.28 93.0329 1168.41 92.3949 1171.89 92.3949C1175.4 92.3949 1178.47 93.0329 1181.11 94.3089C1183.74 95.585 1185.79 97.3085 1187.25 99.4794C1188.72 101.634 1189.45 104.053 1189.44 106.738C1189.45 109.588 1188.57 111.966 1186.78 113.872C1185 115.778 1182.69 116.988 1179.84 117.501V117.899C1183.59 118.38 1186.44 119.681 1188.39 121.802C1190.36 123.906 1191.34 126.541 1191.32 129.707C1191.34 132.607 1190.5 135.184 1188.81 137.438C1187.14 139.691 1184.83 141.464 1181.88 142.757C1178.93 144.05 1175.55 144.696 1171.74 144.696ZM1208.14 144H1196.6L1214.18 93.0909H1228.05L1245.6 144H1234.06L1221.31 104.724H1220.91L1208.14 144ZM1207.41 123.989H1234.66V132.391H1207.41V123.989ZM1300.77 135.399L1300.15 156.031H1289.91V144H1286.33V135.399H1300.77ZM1251.72 144V93.0909H1262.06V135.349H1283.24V93.0909H1293.71V144H1251.72ZM1307.3 93.0909H1318.04V125.108H1318.46L1340.46 93.0909H1349.88V144H1339.12V111.958H1338.75L1316.62 144H1307.3V93.0909ZM1358.77 93.0909H1369.51V125.108H1369.94L1391.93 93.0909H1401.36V144H1390.59V111.958H1390.22L1368.1 144H1358.77V93.0909ZM1421.56 137.04L1421.29 139.774C1421.07 141.962 1420.66 144.141 1420.04 146.312C1419.45 148.499 1418.82 150.48 1418.15 152.253C1417.51 154.026 1416.99 155.418 1416.59 156.429H1409.73C1409.98 155.451 1410.32 154.084 1410.75 152.327C1411.18 150.587 1411.58 148.632 1411.96 146.461C1412.35 144.29 1412.59 142.078 1412.69 139.824L1412.81 137.04H1421.56ZM445.425 178.091H458.699L472.719 212.295H473.315L487.335 178.091H500.609V229H490.169V195.864H489.746L476.572 228.751H469.462L456.288 195.74H455.865V229H445.425V178.091ZM509.477 229V178.091H543.781V186.965H520.241V199.096H542.017V207.97H520.241V220.126H543.881V229H509.477ZM550.4 186.965V178.091H592.211V186.965H576.625V229H565.986V186.965H550.4ZM599.097 229V178.091H619.182C623.043 178.091 626.333 178.828 629.05 180.303C631.768 181.762 633.84 183.792 635.265 186.393C636.707 188.979 637.428 191.962 637.428 195.342C637.428 198.723 636.698 201.706 635.24 204.291C633.782 206.876 631.669 208.89 628.901 210.332C626.15 211.773 622.819 212.494 618.908 212.494H606.107V203.869H617.168C619.24 203.869 620.947 203.512 622.289 202.8C623.648 202.071 624.659 201.068 625.322 199.792C626.001 198.499 626.341 197.016 626.341 195.342C626.341 193.652 626.001 192.177 625.322 190.918C624.659 189.642 623.648 188.656 622.289 187.96C620.93 187.247 619.207 186.891 617.119 186.891H609.86V229H599.097ZM691.202 203.545C691.202 209.097 690.149 213.82 688.045 217.714C685.957 221.609 683.106 224.584 679.493 226.638C675.897 228.677 671.854 229.696 667.363 229.696C662.839 229.696 658.778 228.669 655.182 226.614C651.586 224.559 648.744 221.584 646.656 217.69C644.568 213.795 643.524 209.08 643.524 203.545C643.524 197.994 644.568 193.271 646.656 189.376C648.744 185.482 651.586 182.516 655.182 180.477C658.778 178.422 662.839 177.395 667.363 177.395C671.854 177.395 675.897 178.422 679.493 180.477C683.106 182.516 685.957 185.482 688.045 189.376C690.149 193.271 691.202 197.994 691.202 203.545ZM680.289 203.545C680.289 199.949 679.75 196.917 678.673 194.447C677.613 191.978 676.113 190.106 674.174 188.83C672.235 187.554 669.965 186.915 667.363 186.915C664.761 186.915 662.491 187.554 660.552 188.83C658.613 190.106 657.105 191.978 656.028 194.447C654.967 196.917 654.437 199.949 654.437 203.545C654.437 207.142 654.967 210.174 656.028 212.643C657.105 215.113 658.613 216.985 660.552 218.261C662.491 219.537 664.761 220.175 667.363 220.175C669.965 220.175 672.235 219.537 674.174 218.261C676.113 216.985 677.613 215.113 678.673 212.643C679.75 210.174 680.289 207.142 680.289 203.545ZM696.415 229V220.349L697.857 220.225C699.713 220.076 701.213 219.372 702.357 218.112C703.5 216.836 704.353 214.806 704.917 212.022C705.497 209.221 705.87 205.46 706.036 200.737L706.881 178.091H741.433V229H730.968V186.717H716.874L716.078 204.44C715.813 210.141 715.134 214.798 714.04 218.411C712.963 222.023 711.239 224.691 708.869 226.415C706.516 228.138 703.293 229 699.2 229H696.415ZM797.09 203.545C797.09 209.097 796.038 213.82 793.933 217.714C791.845 221.609 788.995 224.584 785.382 226.638C781.786 228.677 777.742 229.696 773.251 229.696C768.727 229.696 764.667 228.669 761.071 226.614C757.475 224.559 754.633 221.584 752.545 217.69C750.457 213.795 749.413 209.08 749.413 203.545C749.413 197.994 750.457 193.271 752.545 189.376C754.633 185.482 757.475 182.516 761.071 180.477C764.667 178.422 768.727 177.395 773.251 177.395C777.742 177.395 781.786 178.422 785.382 180.477C788.995 182.516 791.845 185.482 793.933 189.376C796.038 193.271 797.09 197.994 797.09 203.545ZM786.178 203.545C786.178 199.949 785.639 196.917 784.562 194.447C783.501 191.978 782.001 190.106 780.062 188.83C778.124 187.554 775.853 186.915 773.251 186.915C770.65 186.915 768.379 187.554 766.44 188.83C764.501 190.106 762.993 191.978 761.916 194.447C760.856 196.917 760.325 199.949 760.325 203.545C760.325 207.142 760.856 210.174 761.916 212.643C762.993 215.113 764.501 216.985 766.44 218.261C768.379 219.537 770.65 220.175 773.251 220.175C775.853 220.175 778.124 219.537 780.062 218.261C782.001 216.985 783.501 215.113 784.562 212.643C785.639 210.174 786.178 207.142 786.178 203.545ZM838.845 178.091V186.965H815.827V229H805.063V178.091H838.845ZM845.737 178.091H856.476V210.108H856.898L878.898 178.091H888.319V229H877.555V196.958H877.183L855.059 229H845.737V178.091ZM897.212 178.091H907.95V210.108H908.373L930.372 178.091H939.794V229H929.03V196.958H928.657L906.534 229H897.212V178.091ZM964.888 178.091H975.626V210.108H976.049L998.048 178.091H1007.47V229H996.706V196.958H996.333L974.209 229H964.888V178.091ZM1077.48 195.914H1066.59C1066.4 194.505 1065.99 193.254 1065.38 192.161C1064.76 191.05 1063.98 190.106 1063.01 189.327C1062.05 188.548 1060.94 187.951 1059.68 187.537C1058.44 187.123 1057.09 186.915 1055.63 186.915C1053 186.915 1050.7 187.57 1048.75 188.879C1046.79 190.172 1045.27 192.061 1044.2 194.547C1043.12 197.016 1042.58 200.016 1042.58 203.545C1042.58 207.175 1043.12 210.224 1044.2 212.693C1045.29 215.162 1046.82 217.027 1048.77 218.286C1050.73 219.546 1052.99 220.175 1055.56 220.175C1057 220.175 1058.33 219.985 1059.56 219.604C1060.8 219.223 1061.9 218.667 1062.87 217.938C1063.83 217.192 1064.62 216.289 1065.25 215.229C1065.9 214.168 1066.35 212.958 1066.59 211.599L1077.48 211.649C1077.2 213.986 1076.5 216.24 1075.37 218.411C1074.26 220.565 1072.76 222.496 1070.87 224.202C1069 225.893 1066.76 227.235 1064.16 228.229C1061.57 229.207 1058.65 229.696 1055.38 229.696C1050.84 229.696 1046.78 228.669 1043.2 226.614C1039.64 224.559 1036.82 221.584 1034.75 217.69C1032.7 213.795 1031.67 209.08 1031.67 203.545C1031.67 197.994 1032.71 193.271 1034.8 189.376C1036.89 185.482 1039.72 182.516 1043.3 180.477C1046.88 178.422 1050.91 177.395 1055.38 177.395C1058.33 177.395 1061.07 177.809 1063.59 178.638C1066.12 179.466 1068.37 180.676 1070.32 182.267C1072.28 183.841 1073.87 185.772 1075.1 188.059C1076.34 190.346 1077.13 192.964 1077.48 195.914ZM1085.2 229V178.091H1119.5V186.965H1095.96V199.096H1117.74V207.97H1095.96V220.126H1119.6V229H1085.2ZM1128.06 229V178.091H1148.15C1152.01 178.091 1155.3 178.828 1158.02 180.303C1160.73 181.762 1162.8 183.792 1164.23 186.393C1165.67 188.979 1166.39 191.962 1166.39 195.342C1166.39 198.723 1165.66 201.706 1164.2 204.291C1162.75 206.876 1160.63 208.89 1157.87 210.332C1155.12 211.773 1151.78 212.494 1147.87 212.494H1135.07V203.869H1146.13C1148.2 203.869 1149.91 203.512 1151.25 202.8C1152.61 202.071 1153.62 201.068 1154.29 199.792C1154.97 198.499 1155.31 197.016 1155.31 195.342C1155.31 193.652 1154.97 192.177 1154.29 190.918C1153.62 189.642 1152.61 188.656 1151.25 187.96C1149.9 187.247 1148.17 186.891 1146.08 186.891H1138.82V229H1128.06ZM1171.44 186.965V178.091H1213.26V186.965H1197.67V229H1187.03V186.965H1171.44ZM1220.14 178.091H1230.88V210.108H1231.3L1253.3 178.091H1262.72V229H1251.96V196.958H1251.59L1229.46 229H1220.14V178.091ZM1291.75 183.56H1303.14C1307.21 183.56 1310.83 184.421 1313.97 186.145C1317.14 187.868 1319.62 190.296 1321.41 193.428C1323.21 196.544 1324.12 200.206 1324.12 204.415C1324.12 208.492 1323.21 212.047 1321.41 215.08C1319.62 218.112 1317.14 220.474 1313.97 222.164C1310.83 223.838 1307.21 224.675 1303.14 224.675H1291.75C1287.66 224.675 1284.03 223.846 1280.86 222.189C1277.7 220.515 1275.21 218.162 1273.41 215.129C1271.62 212.097 1270.72 208.517 1270.72 204.391C1270.72 200.181 1271.62 196.519 1273.43 193.403C1275.25 190.271 1277.75 187.852 1280.91 186.145C1284.08 184.421 1287.69 183.56 1291.75 183.56ZM1291.75 192.558C1289.56 192.558 1287.63 192.997 1285.96 193.876C1284.3 194.737 1283.01 196.047 1282.08 197.803C1281.15 199.56 1280.69 201.756 1280.69 204.391C1280.69 206.91 1281.16 209.006 1282.11 210.68C1283.07 212.353 1284.38 213.605 1286.03 214.433C1287.69 215.262 1289.6 215.676 1291.75 215.676H1303.21C1305.38 215.676 1307.28 215.254 1308.9 214.408C1310.54 213.563 1311.81 212.304 1312.71 210.63C1313.62 208.956 1314.07 206.885 1314.07 204.415C1314.07 201.781 1313.62 199.585 1312.71 197.828C1311.81 196.071 1310.54 194.754 1308.9 193.876C1307.28 192.997 1305.38 192.558 1303.21 192.558H1291.75ZM1302.54 177.196V231.088H1292.32V177.196H1302.54ZM1332.05 178.091H1342.78V210.108H1343.21L1365.21 178.091H1374.63V229H1363.86V196.958H1363.49L1341.37 229H1332.05V178.091ZM1414.32 229L1397.96 207.299H1394.28V229H1383.52V178.091H1394.28V198.425H1396.45L1413.35 178.091H1426.75L1406.89 201.706L1427.67 229H1414.32ZM1441.86 229H1430.32L1447.9 178.091H1461.77L1479.32 229H1467.78L1455.03 189.724H1454.63L1441.86 229ZM1441.13 208.989H1468.38V217.391H1441.13V208.989ZM1534.49 220.399L1533.87 241.031H1523.63V229H1520.05V220.399H1534.49ZM1485.44 229V178.091H1495.79V220.349H1516.96V178.091H1527.43V229H1485.44ZM1541.02 178.091H1551.76V210.108H1552.18L1574.18 178.091H1583.6V229H1572.84V196.958H1572.47L1550.34 229H1541.02V178.091ZM1592.5 178.091H1603.23V210.108H1603.66L1625.66 178.091H1635.08V229H1624.31V196.958H1623.94L1601.82 229H1592.5V178.091ZM445.425 314V263.091H465.808C469.554 263.091 472.677 263.646 475.18 264.756C477.682 265.867 479.563 267.408 480.822 269.38C482.082 271.335 482.712 273.589 482.712 276.141C482.712 278.13 482.314 279.878 481.518 281.386C480.723 282.878 479.629 284.104 478.237 285.065C476.862 286.01 475.287 286.681 473.514 287.079V287.576C475.453 287.659 477.268 288.206 478.958 289.217C480.665 290.228 482.049 291.644 483.109 293.467C484.17 295.274 484.7 297.428 484.7 299.93C484.7 302.632 484.029 305.043 482.687 307.164C481.361 309.269 479.397 310.934 476.795 312.161C474.194 313.387 470.987 314 467.175 314H445.425ZM456.188 305.2H464.963C467.963 305.2 470.15 304.629 471.526 303.485C472.901 302.325 473.589 300.784 473.589 298.862C473.589 297.453 473.249 296.21 472.57 295.133C471.89 294.056 470.921 293.21 469.661 292.597C468.418 291.984 466.935 291.678 465.212 291.678H456.188V305.2ZM456.188 284.394H464.168C465.643 284.394 466.952 284.137 468.095 283.624C469.255 283.093 470.167 282.348 470.83 281.386C471.509 280.425 471.849 279.273 471.849 277.931C471.849 276.092 471.194 274.608 469.885 273.482C468.592 272.355 466.753 271.791 464.366 271.791H456.188V284.394ZM513.399 314.696V305.946H516.158C517.533 305.946 518.644 305.78 519.489 305.449C520.334 305.101 521.005 304.595 521.502 303.933C522.016 303.253 522.447 302.408 522.795 301.397L523.417 299.732L504.922 263.091H516.059L528.04 288.148L538.058 263.091H549.045L531.495 304.007C530.65 305.896 529.648 307.653 528.488 309.277C527.344 310.901 525.877 312.21 524.088 313.205C522.298 314.199 520.011 314.696 517.227 314.696H513.399ZM573.387 314.696C569.675 314.696 566.369 314.058 563.469 312.782C560.585 311.489 558.307 309.716 556.633 307.462C554.976 305.192 554.122 302.574 554.073 299.607H564.911C564.977 300.85 565.383 301.944 566.129 302.888C566.891 303.817 567.902 304.537 569.161 305.051C570.421 305.565 571.838 305.822 573.412 305.822C575.053 305.822 576.503 305.532 577.762 304.952C579.022 304.372 580.008 303.568 580.72 302.54C581.433 301.513 581.789 300.328 581.789 298.986C581.789 297.627 581.408 296.425 580.646 295.381C579.9 294.321 578.823 293.492 577.414 292.896C576.022 292.299 574.365 292.001 572.443 292.001H567.695V284.096H572.443C574.067 284.096 575.5 283.814 576.743 283.251C578.003 282.687 578.98 281.908 579.676 280.914C580.372 279.903 580.72 278.727 580.72 277.384C580.72 276.108 580.414 274.99 579.801 274.028C579.204 273.051 578.359 272.288 577.265 271.741C576.188 271.195 574.928 270.921 573.487 270.921C572.028 270.921 570.694 271.186 569.485 271.717C568.275 272.23 567.305 272.968 566.576 273.929C565.847 274.89 565.458 276.017 565.408 277.31H555.092C555.142 274.376 555.978 271.791 557.602 269.554C559.227 267.317 561.414 265.568 564.165 264.309C566.932 263.033 570.056 262.395 573.536 262.395C577.05 262.395 580.124 263.033 582.759 264.309C585.394 265.585 587.44 267.308 588.899 269.479C590.374 271.634 591.103 274.053 591.086 276.738C591.103 279.588 590.216 281.966 588.426 283.872C586.653 285.778 584.341 286.988 581.491 287.501V287.899C585.236 288.38 588.087 289.681 590.042 291.802C592.014 293.906 592.992 296.541 592.975 299.707C592.992 302.607 592.155 305.184 590.465 307.438C588.791 309.691 586.479 311.464 583.529 312.757C580.579 314.05 577.199 314.696 573.387 314.696ZM601.011 314V263.091H634.793V271.965H611.774V281.908H620.052C624.079 281.908 627.551 282.563 630.467 283.872C633.401 285.165 635.663 286.996 637.254 289.366C638.844 291.736 639.64 294.528 639.64 297.743C639.64 300.941 638.844 303.767 637.254 306.219C635.663 308.656 633.401 310.561 630.467 311.937C627.551 313.312 624.079 314 620.052 314H601.011ZM611.774 305.349H620.052C621.974 305.349 623.598 305.001 624.924 304.305C626.25 303.593 627.252 302.656 627.932 301.496C628.628 300.32 628.976 299.036 628.976 297.643C628.976 295.622 628.205 293.915 626.664 292.523C625.139 291.114 622.935 290.41 620.052 290.41H611.774V305.349ZM646.606 314V263.091H680.91V271.965H657.37V284.096H679.145V292.97H657.37V305.126H681.01V314H646.606ZM720.267 314L703.91 292.299H700.231V314H689.468V263.091H700.231V283.425H702.394L719.297 263.091H732.696L712.834 286.706L733.615 314H720.267ZM739.028 263.091H749.767V295.108H750.189L772.189 263.091H781.61V314H770.846V281.958H770.474L748.35 314H739.028V263.091ZM835.421 280.914H824.533C824.335 279.505 823.929 278.254 823.315 277.161C822.702 276.05 821.915 275.106 820.954 274.327C819.993 273.548 818.882 272.951 817.623 272.537C816.38 272.123 815.029 271.915 813.571 271.915C810.936 271.915 808.641 272.57 806.685 273.879C804.73 275.172 803.214 277.061 802.136 279.547C801.059 282.016 800.521 285.016 800.521 288.545C800.521 292.175 801.059 295.224 802.136 297.693C803.23 300.162 804.755 302.027 806.71 303.286C808.666 304.546 810.928 305.175 813.496 305.175C814.938 305.175 816.272 304.985 817.499 304.604C818.741 304.223 819.844 303.667 820.805 302.938C821.766 302.192 822.561 301.289 823.191 300.229C823.837 299.168 824.285 297.958 824.533 296.599L835.421 296.649C835.139 298.986 834.435 301.24 833.308 303.411C832.198 305.565 830.698 307.496 828.809 309.202C826.936 310.893 824.699 312.235 822.097 313.229C819.512 314.207 816.587 314.696 813.322 314.696C808.782 314.696 804.722 313.669 801.142 311.614C797.579 309.559 794.762 306.584 792.69 302.69C790.635 298.795 789.608 294.08 789.608 288.545C789.608 282.994 790.652 278.271 792.74 274.376C794.828 270.482 797.662 267.516 801.241 265.477C804.821 263.422 808.848 262.395 813.322 262.395C816.272 262.395 819.007 262.809 821.526 263.638C824.061 264.466 826.307 265.676 828.262 267.267C830.218 268.841 831.808 270.772 833.035 273.059C834.278 275.346 835.073 277.964 835.421 280.914ZM841.201 271.965V263.091H883.012V271.965H867.426V314H856.787V271.965H841.201ZM892.452 314H880.917L898.492 263.091H912.363L929.912 314H918.378L905.626 274.724H905.229L892.452 314ZM891.731 293.989H918.975V302.391H891.731V293.989ZM936.04 314V263.091H946.803V284.096H968.654V263.091H979.392V314H968.654V292.97H946.803V314H936.04ZM988.267 314V263.091H1022.57V271.965H999.03V284.096H1020.81V292.97H999.03V305.126H1022.67V314H988.267Z" fill="black"/>
</svg>
